<svg id="Logo" xmlns="http://www.w3.org/2000/svg" viewBox="0 0 576.64 333.978"><defs><style>.cls-1{fill:#002d6b;}.cls-2{fill:#3d3d3d;}</style></defs><title>logo</title><polygon class="cls-1" points="1.32 71 25.32 71 25.32 83.5 49.32 83.5 49.32 71 97.32 71 97.32 59.5 144.32 59.5 144.32 71.5 192.32 71.5 192.32 59.5 216.82 59.5 216.82 48 241.32 48 241.32 36 288.32 36 288.32 47.5 312.32 47 312.32 36 348.82 36 348.82 11.5 360.82 11.5 360.82 0 371.82 0 371.82 35 395.32 35 395.32 47 419.82 47 419.82 59.5 455.82 59.5 455.82 47.5 514.82 47.5 514.82 59 550.82 59 550.82 71 575.32 71 575.32 106.5 564.32 106.5 564.32 130 551.82 130 551.82 167 539.82 167 539.82 106.5 515.32 106.5 515.32 153.5 503.82 153.5 503.82 95 491.82 95 491.82 83.5 479.32 83.5 479.32 167 468.32 167 468.32 118.5 443.32 118.5 443.32 154 431.32 154 431.32 94.5 420.32 94.5 420.32 83.5 408.32 83.5 408.32 95 395.32 95 395.32 142 372.82 142 372.82 167 360.32 167 360.32 94.5 348.32 94.5 348.32 106 336.32 106 336.32 154 324.32 154 324.32 94.5 300.32 94.5 300.32 167 288.32 167 288.32 154.5 275.82 154.5 275.82 106.5 252.82 106.5 252.82 118 240.82 118 240.82 167 228.32 167 228.32 106.5 216.82 106.5 216.82 94.5 204.32 94.5 204.32 106.5 192.82 106.5 192.82 142 180.32 142 180.32 118.5 156.32 118.5 156.32 167 145.32 167 145.32 130.5 132.82 130.5 132.82 118.5 120.82 118.5 120.82 154 108.82 154 108.82 106 84.82 106 84.82 167 73.82 167 73.82 95 60.82 95 60.82 106 49.32 106 49.32 142 37.32 142 37.32 118.5 13.32 118.5 13.32 167 1.32 167 1.32 71"/><path class="cls-1" d="M18.228,213.1h11.6s-.44,21.944,0,29.241c.6,10,18.615,9.368,18.992,0,.294-7.305,0-29.241,0-29.241H60.582s.376,21.94,0,29.241c-.941,18.237-24.223,23.275-36.614,12.679a16.425,16.425,0,0,1-5.816-11.549C17.67,235.894,18.228,213.1,18.228,213.1Z" transform="translate(-16.18 -10.5)"/><polygon class="cls-1" points="103.336 250.005 115.243 250.005 115.243 225.661 143.127 250.005 145.539 250.005 145.539 202.6 134.084 202.6 134.084 227.47 106.049 202.6 103.336 202.6 103.336 250.005"/><polygon class="cls-1" points="217.285 202.6 249.389 202.6 249.389 213.151 228.74 213.151 228.74 220.386 244.566 220.386 244.566 231.087 228.89 231.087 228.89 238.473 249.389 238.473 249.389 249.325 217.285 249.325 217.285 202.6"/><polygon class="cls-1" points="304.103 202.6 317.367 202.6 326.259 215.864 334.248 202.6 347.512 202.6 333.645 225.962 347.512 250.079 334.851 250.079 325.807 237.87 317.367 250.079 304.103 250.079 318.572 225.962 304.103 202.6"/><path class="cls-1" d="M464.376,228.474l7.386-7.838c-14.168-13.113-38.586-9.043-44.615,10.7a23.889,23.889,0,0,0,0,11.907c5.728,19.293,31.5,22.458,44.615,10.4-2.777-2.777-5.192-5.348-8.056-8.036a27.754,27.754,0,0,1-8.5,3.765c-9.407,2.036-17.316-5.748-16.452-14.922.48-5.092,5.914-8.764,10.593-9.771C454.636,223.542,460.111,225.309,464.376,228.474Z" transform="translate(-16.18 -10.5)"/><path class="cls-1" d="M568.88,213.04h-2.82l-22.68,47.71h12.56l3.37-7.69H576l3.38,7.69h12.18Zm-4.5,31.02,3.09-7.16,3.47,7.16Z" transform="translate(-16.18 -10.5)"/><g id="titulo"><path class="cls-2" d="M19.347,284.035v14.223c0,5.382,2.412,7.663,5.652,7.663,3.6,0,5.9-2.353,5.9-7.663V284.035h3.167v14.008c0,7.379-3.923,10.408-9.178,10.408-4.968,0-8.711-2.815-8.711-10.265V284.035Z" transform="translate(-16.18 -10.5)"/><path class="cls-2" d="M41.2,295.477c0-1.782-.036-3.244-.144-4.669h2.808l.179,2.851h.073a6.416,6.416,0,0,1,5.759-3.243c2.412,0,6.155,1.426,6.155,7.342v10.3H52.861v-9.945c0-2.781-1.044-5.1-4.031-5.1a4.492,4.492,0,0,0-4.247,3.208,4.436,4.436,0,0,0-.216,1.462V308.06H41.2Z" transform="translate(-16.18 -10.5)"/><path class="cls-2" d="M66.506,285.96a1.962,1.962,0,0,1-3.923,0,1.92,1.92,0,0,1,1.98-1.96A1.87,1.87,0,0,1,66.506,285.96Zm-3.527,22.1V290.808h3.167V308.06Z" transform="translate(-16.18 -10.5)"/><path class="cls-2" d="M74.426,290.808l3.42,9.695a44,44,0,0,1,1.4,4.42h.107c.4-1.426.9-2.852,1.476-4.42l3.384-9.695h3.312l-6.84,17.252H77.666l-6.624-17.252Z" transform="translate(-16.18 -10.5)"/><path class="cls-2" d="M93.722,300c.072,4.242,2.808,5.988,5.975,5.988a11.574,11.574,0,0,0,4.824-.89l.54,2.245a14.236,14.236,0,0,1-5.8,1.069c-5.363,0-8.567-3.493-8.567-8.7s3.1-9.3,8.171-9.3c5.688,0,7.2,4.954,7.2,8.127A11.512,11.512,0,0,1,105.96,300Zm9.287-2.246c.036-2-.828-5.1-4.392-5.1-3.2,0-4.607,2.923-4.859,5.1Z" transform="translate(-16.18 -10.5)"/><path class="cls-2" d="M111.793,296.189c0-2.031-.035-3.777-.143-5.381h2.771l.108,3.385h.144a5.219,5.219,0,0,1,4.824-3.777,3.471,3.471,0,0,1,.9.106v2.958a4.869,4.869,0,0,0-1.079-.106c-2.232,0-3.816,1.675-4.248,4.028a8.738,8.738,0,0,0-.144,1.461v9.2h-3.132Z" transform="translate(-16.18 -10.5)"/><path class="cls-2" d="M124.934,304.852a8.367,8.367,0,0,0,4.175,1.248c2.3,0,3.384-1.141,3.384-2.567,0-1.5-.9-2.317-3.24-3.173-3.131-1.1-4.607-2.815-4.607-4.883,0-2.78,2.267-5.061,6.011-5.061a8.767,8.767,0,0,1,4.283,1.068l-.792,2.282a6.824,6.824,0,0,0-3.563-1c-1.872,0-2.916,1.07-2.916,2.353,0,1.426,1.044,2.067,3.312,2.922,3.023,1.141,4.571,2.639,4.571,5.2,0,3.029-2.376,5.168-6.515,5.168a10.007,10.007,0,0,1-4.9-1.176Z" transform="translate(-16.18 -10.5)"/><path class="cls-2" d="M144.949,285.96a1.962,1.962,0,0,1-3.923,0,1.92,1.92,0,0,1,1.979-1.96A1.87,1.87,0,0,1,144.949,285.96Zm-3.528,22.1V290.808h3.168V308.06Z" transform="translate(-16.18 -10.5)"/><path class="cls-2" d="M166.691,282.752V303.6c0,1.533.037,3.279.144,4.456h-2.843l-.144-3h-.072a6.454,6.454,0,0,1-5.94,3.386c-4.211,0-7.451-3.528-7.451-8.767-.035-5.74,3.564-9.268,7.811-9.268a5.841,5.841,0,0,1,5.256,2.637h.072v-10.3Zm-3.167,15.078a5.48,5.48,0,0,0-.144-1.319,4.648,4.648,0,0,0-4.571-3.636c-3.276,0-5.22,2.852-5.22,6.666,0,3.492,1.728,6.38,5.147,6.38a4.752,4.752,0,0,0,4.644-3.743,5.4,5.4,0,0,0,.144-1.354Z" transform="translate(-16.18 -10.5)"/><path class="cls-2" d="M183.4,308.06l-.252-2.175h-.108a6.509,6.509,0,0,1-5.327,2.566,4.941,4.941,0,0,1-5.328-4.954c0-4.171,3.744-6.452,10.475-6.416v-.356c0-1.426-.4-3.993-3.96-3.993a8.737,8.737,0,0,0-4.535,1.284l-.72-2.068a10.893,10.893,0,0,1,5.724-1.532c5.327,0,6.623,3.6,6.623,7.057v6.452a24.064,24.064,0,0,0,.288,4.135Zm-.468-8.8c-3.455-.072-7.379.534-7.379,3.885a2.79,2.79,0,0,0,2.988,2.994,4.332,4.332,0,0,0,4.211-2.887,3.25,3.25,0,0,0,.18-1Z" transform="translate(-16.18 -10.5)"/><path class="cls-2" d="M207.947,282.752V303.6c0,1.533.036,3.279.144,4.456h-2.844l-.144-3h-.072a6.453,6.453,0,0,1-5.939,3.386c-4.212,0-7.451-3.528-7.451-8.767-.036-5.74,3.563-9.268,7.811-9.268a5.84,5.84,0,0,1,5.255,2.637h.072v-10.3Zm-3.168,15.078a5.48,5.48,0,0,0-.144-1.319,4.649,4.649,0,0,0-4.572-3.636c-3.275,0-5.219,2.852-5.219,6.666,0,3.492,1.728,6.38,5.148,6.38a4.752,4.752,0,0,0,4.643-3.743,5.4,5.4,0,0,0,.144-1.354Z" transform="translate(-16.18 -10.5)"/><path class="cls-2" d="M224.544,308.06V284.035h3.42l7.775,12.154A67.926,67.926,0,0,1,240.094,304l.073-.035c-.289-3.209-.361-6.131-.361-9.874V284.035h2.952V308.06H239.59l-7.7-12.191a76.191,76.191,0,0,1-4.535-8.019l-.108.035c.18,3.029.252,5.917.252,9.909V308.06Z" transform="translate(-16.18 -10.5)"/><path class="cls-2" d="M259.57,308.06l-.252-2.175h-.108a6.508,6.508,0,0,1-5.327,2.566,4.94,4.94,0,0,1-5.327-4.954c0-4.171,3.743-6.452,10.474-6.416v-.356c0-1.426-.4-3.993-3.959-3.993a8.732,8.732,0,0,0-4.535,1.284l-.721-2.068a10.893,10.893,0,0,1,5.724-1.532c5.327,0,6.623,3.6,6.623,7.057v6.452a24.064,24.064,0,0,0,.288,4.135Zm-.467-8.8c-3.456-.072-7.38.534-7.38,3.885a2.79,2.79,0,0,0,2.988,2.994,4.331,4.331,0,0,0,4.211-2.887,3.252,3.252,0,0,0,.181-1Z" transform="translate(-16.18 -10.5)"/><path class="cls-2" d="M281.494,307.418a11.761,11.761,0,0,1-5,1c-5.256,0-8.676-3.529-8.676-8.805,0-5.31,3.672-9.16,9.359-9.16a10.675,10.675,0,0,1,4.392.891l-.72,2.424a7.4,7.4,0,0,0-3.672-.82c-4,0-6.155,2.923-6.155,6.523,0,3.992,2.592,6.452,6.047,6.452a9.074,9.074,0,0,0,3.888-.856Z" transform="translate(-16.18 -10.5)"/><path class="cls-2" d="M290.531,285.96a1.962,1.962,0,0,1-3.924,0,1.92,1.92,0,0,1,1.98-1.96A1.87,1.87,0,0,1,290.531,285.96ZM287,308.06V290.808h3.168V308.06Z" transform="translate(-16.18 -10.5)"/><path class="cls-2" d="M312.993,299.291c0,6.381-4.464,9.16-8.675,9.16-4.715,0-8.351-3.422-8.351-8.875,0-5.774,3.815-9.16,8.638-9.16C309.609,290.416,312.993,294.016,312.993,299.291Zm-13.823.178c0,3.779,2.2,6.631,5.292,6.631,3.023,0,5.291-2.817,5.291-6.7,0-2.923-1.476-6.63-5.219-6.63S299.17,296.189,299.17,299.469Z" transform="translate(-16.18 -10.5)"/><path class="cls-2" d="M318.791,295.477c0-1.782-.036-3.244-.145-4.669h2.808l.181,2.851h.071a6.418,6.418,0,0,1,5.76-3.243c2.411,0,6.155,1.426,6.155,7.342v10.3h-3.168v-9.945c0-2.781-1.044-5.1-4.031-5.1a4.491,4.491,0,0,0-4.247,3.208,4.435,4.435,0,0,0-.217,1.462V308.06h-3.167Z" transform="translate(-16.18 -10.5)"/><path class="cls-2" d="M350.218,308.06l-.252-2.175h-.109a6.5,6.5,0,0,1-5.327,2.566A4.941,4.941,0,0,1,339.2,303.5c0-4.171,3.743-6.452,10.475-6.416v-.356c0-1.426-.4-3.993-3.959-3.993a8.738,8.738,0,0,0-4.536,1.284l-.72-2.068a10.89,10.89,0,0,1,5.724-1.532c5.327,0,6.623,3.6,6.623,7.057v6.452a24.064,24.064,0,0,0,.288,4.135Zm-.468-8.8c-3.456-.072-7.379.534-7.379,3.885a2.79,2.79,0,0,0,2.987,2.994,4.332,4.332,0,0,0,4.212-2.887,3.25,3.25,0,0,0,.18-1Z" transform="translate(-16.18 -10.5)"/><path class="cls-2" d="M359.723,282.752h3.167V308.06h-3.167Z" transform="translate(-16.18 -10.5)"/><path class="cls-2" d="M392.12,296.8h-9.431v8.661H393.2v2.6H379.558V284.035h13.1v2.6h-9.971v7.592h9.431Z" transform="translate(-16.18 -10.5)"/><path class="cls-2" d="M400.438,290.808l2.483,3.707c.648.962,1.188,1.853,1.764,2.815h.108c.576-1.033,1.151-1.924,1.728-2.851l2.448-3.671h3.419l-5.94,8.34,6.12,8.912h-3.6l-2.556-3.886c-.684-1-1.26-1.96-1.872-2.994h-.072c-.576,1.034-1.188,1.961-1.836,2.994l-2.52,3.886h-3.491l6.191-8.8-5.9-8.448Z" transform="translate(-16.18 -10.5)"/><path class="cls-2" d="M417.431,296.439c0-2.21-.073-3.992-.145-5.631h2.844l.144,2.958h.072a6.863,6.863,0,0,1,6.191-3.35c4.212,0,7.379,3.528,7.379,8.768,0,6.2-3.815,9.267-7.919,9.267a6.126,6.126,0,0,1-5.363-2.709h-.071v9.375h-3.132Zm3.132,4.6a6.98,6.98,0,0,0,.143,1.283,4.878,4.878,0,0,0,4.751,3.672c3.348,0,5.292-2.709,5.292-6.666,0-3.457-1.836-6.416-5.184-6.416a5.436,5.436,0,0,0-5,5.169Z" transform="translate(-16.18 -10.5)"/><path class="cls-2" d="M441.478,300c.072,4.242,2.807,5.988,5.975,5.988a11.569,11.569,0,0,0,4.823-.89l.54,2.245a14.234,14.234,0,0,1-5.795,1.069c-5.364,0-8.567-3.493-8.567-8.7s3.1-9.3,8.171-9.3c5.688,0,7.2,4.954,7.2,8.127a11.7,11.7,0,0,1-.108,1.461Zm9.287-2.246c.035-2-.828-5.1-4.392-5.1-3.2,0-4.607,2.923-4.859,5.1Z" transform="translate(-16.18 -10.5)"/><path class="cls-2" d="M459.55,296.189c0-2.031-.036-3.777-.145-5.381h2.772l.108,3.385h.144a5.219,5.219,0,0,1,4.824-3.777,3.471,3.471,0,0,1,.9.106v2.958a4.879,4.879,0,0,0-1.08-.106c-2.231,0-3.815,1.675-4.247,4.028a8.744,8.744,0,0,0-.143,1.461v9.2H459.55Z" transform="translate(-16.18 -10.5)"/><path class="cls-2" d="M476.792,285.96a1.962,1.962,0,0,1-3.924,0,1.921,1.921,0,0,1,1.981-1.96A1.87,1.87,0,0,1,476.792,285.96Zm-3.527,22.1V290.808h3.167V308.06Z" transform="translate(-16.18 -10.5)"/><path class="cls-2" d="M483.488,295.477c0-1.782-.036-3.244-.144-4.669h2.771l.145,2.78h.107a6.013,6.013,0,0,1,5.472-3.172,5.148,5.148,0,0,1,4.932,3.457h.072a7.111,7.111,0,0,1,1.943-2.246,5.99,5.99,0,0,1,3.852-1.211c2.3,0,5.723,1.5,5.723,7.484v10.16h-3.095v-9.767c0-3.314-1.225-5.311-3.781-5.311a4.1,4.1,0,0,0-3.743,2.852,5.15,5.15,0,0,0-.252,1.568V308.06h-3.1V297.723c0-2.744-1.224-4.741-3.636-4.741a4.319,4.319,0,0,0-3.923,3.137,4.26,4.26,0,0,0-.252,1.532V308.06h-3.1Z" transform="translate(-16.18 -10.5)"/><path class="cls-2" d="M517.077,300c.072,4.242,2.808,5.988,5.976,5.988a11.572,11.572,0,0,0,4.823-.89l.54,2.245a14.236,14.236,0,0,1-5.8,1.069c-5.363,0-8.566-3.493-8.566-8.7s3.1-9.3,8.171-9.3c5.687,0,7.2,4.954,7.2,8.127a11.473,11.473,0,0,1-.109,1.461Zm9.287-2.246c.035-2-.828-5.1-4.391-5.1-3.2,0-4.608,2.923-4.86,5.1Z" transform="translate(-16.18 -10.5)"/><path class="cls-2" d="M535.149,295.477c0-1.782-.036-3.244-.144-4.669h2.808l.18,2.851h.071a6.419,6.419,0,0,1,5.76-3.243c2.411,0,6.155,1.426,6.155,7.342v10.3h-3.167v-9.945c0-2.781-1.044-5.1-4.032-5.1a4.609,4.609,0,0,0-4.464,4.67V308.06h-3.167Z" transform="translate(-16.18 -10.5)"/><path class="cls-2" d="M560.6,285.854v4.954h4.535V293.2H560.6v9.3c0,2.139.611,3.351,2.376,3.351a7.152,7.152,0,0,0,1.835-.214l.144,2.352a7.813,7.813,0,0,1-2.808.428,4.412,4.412,0,0,1-3.419-1.318c-.9-.928-1.224-2.46-1.224-4.493V293.2h-2.7v-2.387h2.7v-4.135Z" transform="translate(-16.18 -10.5)"/><path class="cls-2" d="M580.147,308.06l-.251-2.175h-.109a6.508,6.508,0,0,1-5.327,2.566,4.941,4.941,0,0,1-5.327-4.954c0-4.171,3.743-6.452,10.474-6.416v-.356c0-1.426-.395-3.993-3.959-3.993a8.741,8.741,0,0,0-4.536,1.284l-.719-2.068a10.889,10.889,0,0,1,5.723-1.532c5.327,0,6.623,3.6,6.623,7.057v6.452a24.165,24.165,0,0,0,.288,4.135Zm-.467-8.8c-3.456-.072-7.379.534-7.379,3.885a2.79,2.79,0,0,0,2.987,2.994,4.332,4.332,0,0,0,4.212-2.887,3.28,3.28,0,0,0,.18-1Z" transform="translate(-16.18 -10.5)"/><path class="cls-2" d="M589.652,282.752h3.167V308.06h-3.167Z" transform="translate(-16.18 -10.5)"/><path class="cls-2" d="M160.836,318.752V339.6c0,1.533.036,3.279.144,4.456h-2.844l-.144-3h-.072a6.453,6.453,0,0,1-5.939,3.386c-4.211,0-7.451-3.528-7.451-8.767-.036-5.74,3.563-9.268,7.811-9.268a5.84,5.84,0,0,1,5.255,2.637h.072v-10.3Zm-3.168,15.078a5.48,5.48,0,0,0-.144-1.319,4.648,4.648,0,0,0-4.571-3.636c-3.276,0-5.22,2.852-5.22,6.666,0,3.492,1.728,6.38,5.148,6.38a4.752,4.752,0,0,0,4.643-3.743,5.4,5.4,0,0,0,.144-1.354Z" transform="translate(-16.18 -10.5)"/><path class="cls-2" d="M169.657,336c.072,4.242,2.808,5.988,5.975,5.988a11.574,11.574,0,0,0,4.824-.89l.54,2.245a14.236,14.236,0,0,1-5.8,1.069c-5.363,0-8.567-3.493-8.567-8.7s3.1-9.3,8.171-9.3c5.688,0,7.2,4.954,7.2,8.127A11.746,11.746,0,0,1,181.9,336Zm9.287-2.246c.036-2-.828-5.1-4.392-5.1-3.2,0-4.607,2.923-4.859,5.1Z" transform="translate(-16.18 -10.5)"/><path class="cls-2" d="M197.161,318.752h3.168V344.06h-3.168Z" transform="translate(-16.18 -10.5)"/><path class="cls-2" d="M217.1,344.06l-.252-2.175h-.108a6.51,6.51,0,0,1-5.327,2.566,4.941,4.941,0,0,1-5.328-4.954c0-4.171,3.744-6.452,10.474-6.416v-.356c0-1.426-.4-3.993-3.959-3.993a8.732,8.732,0,0,0-4.535,1.284l-.72-2.068a10.889,10.889,0,0,1,5.723-1.532c5.327,0,6.623,3.6,6.623,7.057v6.452a24.064,24.064,0,0,0,.288,4.135Zm-.468-8.8c-3.456-.072-7.38.534-7.38,3.885a2.791,2.791,0,0,0,2.988,2.994,4.332,4.332,0,0,0,4.212-2.887,3.28,3.28,0,0,0,.18-1Z" transform="translate(-16.18 -10.5)"/><path class="cls-1" d="M256.211,342.268a15.788,15.788,0,0,1-4.043,1.644,18.971,18.971,0,0,1-4.729.566q-5.748,0-9.14-3.22t-3.393-9.311a12.541,12.541,0,0,1,13.289-13.26,19.51,19.51,0,0,1,4.114.409,19.258,19.258,0,0,1,3.92,1.331l-1.459,3.255a16.122,16.122,0,0,0-3.208-1.088,15.84,15.84,0,0,0-3.384-.339,8.725,8.725,0,0,0-6.416,2.435q-2.462,2.438-2.461,7.014,0,4.629,2.267,6.917a8.319,8.319,0,0,0,6.188,2.289,11.7,11.7,0,0,0,2.338-.218,7.629,7.629,0,0,0,1.933-.652v-6.057h-5.308V330.5h9.492Z" transform="translate(-16.18 -10.5)"/><path class="cls-1" d="M272.987,329.633a5.481,5.481,0,0,0-.641-.13,5.141,5.141,0,0,0-.712-.044,3.937,3.937,0,0,0-3.375,1.6,6.88,6.88,0,0,0-1.178,4.176v8.824h-4.1V326.239h4.1v3.429h.07a5.766,5.766,0,0,1,1.864-2.793,4.608,4.608,0,0,1,2.9-.948,6.1,6.1,0,0,1,.853.052,4.883,4.883,0,0,1,.729.156Z" transform="translate(-16.18 -10.5)"/><path class="cls-1" d="M291.838,344.06h-3.955v-2.68h-.07a6.253,6.253,0,0,1-2.268,2.323,6.154,6.154,0,0,1-3.111.775,5.89,5.89,0,0,1-4.06-1.436,4.98,4.98,0,0,1-1.618-3.925,5.1,5.1,0,0,1,1.618-3.889,8.612,8.612,0,0,1,4.8-1.975l4.729-.627v-.365a3.3,3.3,0,0,0-.949-2.628,3.8,3.8,0,0,0-2.567-.818,8.05,8.05,0,0,0-2.61.453,9,9,0,0,0-2.575,1.409l-1.776-2.419a11.383,11.383,0,0,1,7.278-2.436q3.621,0,5.379,1.766a7.224,7.224,0,0,1,1.757,5.3Zm-3.937-7.24v-1.513l-3.85.5a5.369,5.369,0,0,0-2.557.914,2.338,2.338,0,0,0-.853,1.958,2.606,2.606,0,0,0,.809,2.036,2.975,2.975,0,0,0,2.074.73,4.093,4.093,0,0,0,3.182-1.313A4.745,4.745,0,0,0,287.9,336.82Z" transform="translate(-16.18 -10.5)"/><path class="cls-1" d="M314.732,344.06h-4.078V334.019a6.286,6.286,0,0,0-.914-3.734A3.183,3.183,0,0,0,307,329.041a3.833,3.833,0,0,0-3.023,1.375,5.114,5.114,0,0,0-1.2,3.48V344.06h-4.1V326.239h4.1v2.889h.071a6.426,6.426,0,0,1,5.853-3.306,5.485,5.485,0,0,1,4.49,1.862,8.432,8.432,0,0,1,1.539,5.482Z" transform="translate(-16.18 -10.5)"/><path class="cls-1" d="M351.959,342.824a17.093,17.093,0,0,1-7.594,1.654q-5.783,0-9.052-3.351t-3.27-9.145a13.148,13.148,0,0,1,3.612-9.606,12.658,12.658,0,0,1,9.466-3.689,18.294,18.294,0,0,1,3.454.3,17.813,17.813,0,0,1,3.261.984l-1.354,3.376a14.108,14.108,0,0,0-2.592-.784,14.32,14.32,0,0,0-2.716-.243,8.377,8.377,0,0,0-6.284,2.524,10.882,10.882,0,0,0-.185,13.53,7.9,7.9,0,0,0,6.082,2.444,12.451,12.451,0,0,0,2.672-.312,13.845,13.845,0,0,0,2.936-1.028Z" transform="translate(-16.18 -10.5)"/><path class="cls-1" d="M371.091,344.06h-3.955v-2.68h-.071A6.259,6.259,0,0,1,364.8,343.7a6.157,6.157,0,0,1-3.111.775,5.892,5.892,0,0,1-4.061-1.436,4.983,4.983,0,0,1-1.617-3.925,5.108,5.108,0,0,1,1.617-3.889,8.615,8.615,0,0,1,4.8-1.975l4.728-.627v-.365a3.3,3.3,0,0,0-.949-2.628,3.8,3.8,0,0,0-2.566-.818,8.051,8.051,0,0,0-2.611.453,9.011,9.011,0,0,0-2.575,1.409l-1.775-2.419a11.383,11.383,0,0,1,7.277-2.436q3.621,0,5.379,1.766a7.22,7.22,0,0,1,1.758,5.3Zm-3.938-7.24v-1.513l-3.849.5a5.369,5.369,0,0,0-2.558.914,2.34,2.34,0,0,0-.852,1.958,2.606,2.606,0,0,0,.808,2.036,2.976,2.976,0,0,0,2.074.73,4.092,4.092,0,0,0,3.182-1.313A4.74,4.74,0,0,0,367.153,336.82Z" transform="translate(-16.18 -10.5)"/><path class="cls-1" d="M387.955,329.633a5.5,5.5,0,0,0-.642-.13,5.126,5.126,0,0,0-.711-.044,3.937,3.937,0,0,0-3.375,1.6,6.873,6.873,0,0,0-1.178,4.176v8.824h-4.1V326.239h4.1v3.429h.07a5.771,5.771,0,0,1,1.863-2.793,4.612,4.612,0,0,1,2.9-.948,6.087,6.087,0,0,1,.852.052,4.923,4.923,0,0,1,.73.156Z" transform="translate(-16.18 -10.5)"/><path class="cls-1" d="M406.807,344.06h-3.955v-2.68h-.071a6.259,6.259,0,0,1-2.267,2.323,6.16,6.16,0,0,1-3.112.775,5.89,5.89,0,0,1-4.06-1.436,4.983,4.983,0,0,1-1.617-3.925,5.108,5.108,0,0,1,1.617-3.889,8.615,8.615,0,0,1,4.8-1.975l4.728-.627v-.365a3.3,3.3,0,0,0-.949-2.628,3.8,3.8,0,0,0-2.566-.818,8.051,8.051,0,0,0-2.611.453,9,9,0,0,0-2.575,1.409l-1.775-2.419a11.383,11.383,0,0,1,7.277-2.436q3.621,0,5.379,1.766a7.22,7.22,0,0,1,1.758,5.3Zm-3.938-7.24v-1.513l-3.849.5a5.369,5.369,0,0,0-2.558.914,2.34,2.34,0,0,0-.853,1.958,2.606,2.606,0,0,0,.809,2.036,2.975,2.975,0,0,0,2.074.73,4.093,4.093,0,0,0,3.182-1.313A4.74,4.74,0,0,0,402.869,336.82Z" transform="translate(-16.18 -10.5)"/><path class="cls-1" d="M427.134,342.963a10.491,10.491,0,0,1-2.655,1.157,10.923,10.923,0,0,1-2.865.358,9.148,9.148,0,0,1-6.635-2.4,8.645,8.645,0,0,1-2.488-6.526,9.722,9.722,0,0,1,2.575-7.083,9.259,9.259,0,0,1,6.953-2.645,11.259,11.259,0,0,1,2.786.322,10.587,10.587,0,0,1,2.557,1.052l-1.6,2.82a8.043,8.043,0,0,0-1.793-.74,7.433,7.433,0,0,0-1.916-.235,4.906,4.906,0,0,0-3.991,1.688,6.765,6.765,0,0,0-1.406,4.473,6.184,6.184,0,0,0,1.521,4.489A5.106,5.106,0,0,0,422,341.258a6.173,6.173,0,0,0,1.617-.252,7.49,7.49,0,0,0,1.846-.81Z" transform="translate(-16.18 -10.5)"/><path class="cls-1" d="M446.125,344.06H442.17v-2.68h-.07a6.268,6.268,0,0,1-2.268,2.323,6.154,6.154,0,0,1-3.111.775,5.892,5.892,0,0,1-4.061-1.436,4.983,4.983,0,0,1-1.617-3.925,5.108,5.108,0,0,1,1.617-3.889,8.615,8.615,0,0,1,4.8-1.975l4.729-.627v-.365a3.3,3.3,0,0,0-.95-2.628,3.8,3.8,0,0,0-2.566-.818,8.041,8.041,0,0,0-2.61.453,9,9,0,0,0-2.576,1.409l-1.775-2.419a11.383,11.383,0,0,1,7.277-2.436q3.621,0,5.379,1.766a7.22,7.22,0,0,1,1.758,5.3Zm-3.937-7.24v-1.513l-3.85.5a5.373,5.373,0,0,0-2.558.914,2.34,2.34,0,0,0-.852,1.958,2.606,2.606,0,0,0,.808,2.036,2.977,2.977,0,0,0,2.075.73,4.091,4.091,0,0,0,3.181-1.313A4.741,4.741,0,0,0,442.188,336.82Z" transform="translate(-16.18 -10.5)"/><path class="cls-1" d="M451.229,342.633l1.776-2.855a10.159,10.159,0,0,0,2.241,1.175,7.292,7.292,0,0,0,2.575.444,4.264,4.264,0,0,0,2.347-.548,1.956,1.956,0,0,0,.141-3.1,5.809,5.809,0,0,0-2.365-.966,10.429,10.429,0,0,1-4.737-2.07,4.455,4.455,0,0,1-1.362-3.394,4.872,4.872,0,0,1,1.9-3.959,7.651,7.651,0,0,1,4.975-1.54,10.67,10.67,0,0,1,2.918.392,9.96,9.96,0,0,1,2.707,1.244l-1.653,2.784a9.67,9.67,0,0,0-2.127-1.044,6.394,6.394,0,0,0-1.986-.313,4.036,4.036,0,0,0-2.241.53,1.676,1.676,0,0,0-.8,1.471,1.588,1.588,0,0,0,.818,1.47,10.632,10.632,0,0,0,2.75.931,9.123,9.123,0,0,1,4.272,2.011,4.662,4.662,0,0,1,1.353,3.506,5.04,5.04,0,0,1-1.907,4.134,7.981,7.981,0,0,1-5.159,1.54,12.167,12.167,0,0,1-3.366-.462A11.8,11.8,0,0,1,451.229,342.633Z" transform="translate(-16.18 -10.5)"/></g></svg>